<?xml version="1.0" standalone="no"?>
<!DOCTYPE svg PUBLIC "-//W3C//DTD SVG 20010904//EN"
 "http://www.w3.org/TR/2001/REC-SVG-20010904/DTD/svg10.dtd">
<svg version="1.0" xmlns="http://www.w3.org/2000/svg"
 width="247.000000pt" height="247.000000pt" viewBox="0 0 247.000000 247.000000"
 preserveAspectRatio="xMidYMid meet">
<metadata>
Created by potrace 1.11, written by Peter Selinger 2001-2013
</metadata>
<g transform="translate(0.000000,247.000000) scale(0.100000,-0.100000)"
fill="#000000" stroke="none">
<path d="M1468 2452 c-52 -2 -78 -7 -79 -15 -13 -156 -16 -509 -7 -802 1 -16
0 -68 -1 -115 -1 -47 -2 -101 -2 -120 l1 -35 413 1 c226 0 422 4 435 8 24 8
24 10 24 241 -1 56 4 105 10 112 7 9 7 13 -1 13 -17 0 -13 41 6 62 9 10 11 18
5 18 -6 0 -13 -6 -15 -12 -3 -7 -6 0 -6 15 -1 16 3 26 9 22 6 -3 10 4 10 17 0
18 -2 20 -10 8 -8 -12 -10 -10 -10 8 0 13 4 21 9 17 6 -3 8 4 5 17 -14 59 -16
73 -6 59 6 -9 10 22 10 90 0 69 -3 106 -11 111 -9 6 -9 8 1 8 6 0 12 12 12 26
0 16 -4 23 -12 18 -8 -5 -8 -3 -2 7 5 8 10 28 10 44 1 17 3 64 5 105 l4 75
-102 1 c-72 1 -100 -2 -96 -10 5 -8 3 -8 -8 0 -8 6 -41 9 -74 8 -70 -4 -255
-4 -370 -1 -44 1 -115 1 -157 -1z m789 -314 c-3 -8 -6 -5 -6 6 -1 11 2 17 5
13 3 -3 4 -12 1 -19z m0 -140 c-3 -8 -6 -5 -6 6 -1 11 2 17 5 13 3 -3 4 -12 1
-19z"/>
<path d="M320 2410 l-75 -5 -3 -75 c-2 -41 -3 -217 -2 -390 0 -314 0 -381 -4
-495 -1 -33 1 -73 4 -90 5 -27 9 -29 45 -28 49 2 215 3 528 2 131 0 251 2 267
6 29 6 30 8 29 65 -1 32 2 63 6 70 5 9 4 11 -3 6 -9 -5 -9 0 -3 17 6 14 7 28
4 31 -3 3 -5 34 -4 68 1 35 2 71 2 81 0 11 5 15 12 10 9 -5 9 -3 0 8 -18 23
-22 125 -3 114 6 -3 10 4 9 17 0 13 -3 17 -6 11 -2 -7 -9 -13 -14 -13 -11 0 1
33 15 42 8 5 7 11 -2 20 -14 14 -17 62 -2 53 6 -3 10 -1 10 4 0 6 -6 11 -12
11 -9 0 -9 3 -3 8 16 10 17 54 2 45 -8 -4 -8 -1 1 9 8 11 9 18 3 22 -7 5 -7
15 -1 32 13 32 12 37 0 29 -5 -3 -10 1 -10 10 0 9 5 13 10 10 13 -8 9 33 -4
54 -5 8 -5 12 0 9 5 -4 10 47 12 117 l2 123 -90 -1 c-50 0 -93 -4 -96 -9 -3
-5 -10 -5 -16 -2 -13 8 -501 11 -608 4z"/>
<path d="M1035 1100 c-27 -4 -72 -5 -100 -3 -36 3 -46 1 -35 -6 9 -7 10 -11 3
-11 -6 0 -14 3 -16 8 -6 8 -661 7 -675 -2 -11 -7 -13 -67 -12 -466 0 -173 0
-340 -1 -370 -4 -174 -5 -226 -2 -235 2 -5 25 -9 51 -8 83 2 229 3 508 2 179
-1 278 3 292 10 17 9 21 23 24 76 2 37 -1 67 -7 69 -7 3 -7 5 0 5 9 1 11 144
3 270 -1 28 2 46 10 49 7 2 12 11 12 20 0 15 -2 15 -10 2 -8 -12 -10 -10 -10
8 0 13 4 21 9 18 12 -8 8 13 -7 42 -11 19 -10 23 3 28 8 3 15 10 15 16 0 5 -4
7 -9 3 -6 -3 -8 4 -5 17 9 38 12 176 4 148 l-8 -25 -1 27 c-1 14 5 28 12 31 9
3 9 7 0 19 -7 8 -10 18 -7 21 7 7 19 248 12 246 -1 -1 -25 -5 -53 -9z"/>
<path d="M2235 1102 c-2 -2 -192 -6 -421 -8 -229 -2 -419 -5 -421 -8 -5 -4
-12 -105 -15 -196 -2 -61 1 -509 4 -605 1 -16 0 -83 -1 -147 -2 -64 0 -121 2
-125 3 -5 23 -7 44 -6 47 2 157 3 511 2 149 0 281 3 292 6 22 7 25 45 20 258
-1 68 1 86 12 84 7 -2 10 -2 5 0 -4 3 -4 10 -1 15 4 7 2 8 -4 4 -18 -11 -15
44 4 65 12 13 12 19 3 25 -7 4 -10 3 -5 -4 3 -6 2 -13 -4 -17 -6 -4 -10 12
-10 44 0 30 5 51 13 54 10 3 10 9 0 26 -15 24 -17 45 -5 37 5 -3 10 20 11 50
2 44 -1 54 -11 48 -10 -6 -10 -5 -2 7 17 21 19 159 2 159 -9 0 -10 2 -1 8 7 4
12 37 13 82 3 133 1 147 -15 147 -8 0 -17 -2 -20 -5z m22 -324 c-3 -7 -5 -2
-5 12 0 14 2 19 5 13 2 -7 2 -19 0 -25z m0 -150 c-3 -8 -6 -5 -6 6 -1 11 2 17
5 13 3 -3 4 -12 1 -19z"/>
<path d="M2262 500 c0 -14 2 -19 5 -12 2 6 2 18 0 25 -3 6 -5 1 -5 -13z"/>
<path d="M2260 290 c0 -5 5 -10 11 -10 5 0 7 5 4 10 -3 6 -8 10 -11 10 -2 0
-4 -4 -4 -10z"/>
</g>
</svg>
