<?xml version="1.0" standalone="no"?>
<!DOCTYPE svg PUBLIC "-//W3C//DTD SVG 20010904//EN"
 "http://www.w3.org/TR/2001/REC-SVG-20010904/DTD/svg10.dtd">
<svg version="1.0" xmlns="http://www.w3.org/2000/svg"
 width="1142.000000pt" height="1142.000000pt" viewBox="0 0 1142.000000 1142.000000"
 preserveAspectRatio="xMidYMid meet">
<metadata>
Created by potrace 1.11, written by Peter Selinger 2001-2013
</metadata>
<g transform="translate(0.000000,1142.000000) scale(0.100000,-0.100000)"
fill="#000000" stroke="none">
<path d="M5830 10465 c-19 -14 -30 -25 -25 -25 5 0 17 8 27 17 17 15 22 15 41
3 21 -12 21 -12 7 6 -8 10 -15 20 -15 21 -1 2 -17 -8 -35 -22z"/>
<path d="M5676 10375 c-16 -8 -49 -26 -75 -39 -51 -27 -189 -68 -202 -60 -5 3
-19 -4 -31 -16 -15 -13 -30 -19 -43 -15 -45 13 -54 13 -59 -2 -3 -8 -12 -13
-19 -10 -15 6 -79 -20 -89 -36 -4 -6 -2 -18 5 -27 6 -8 2 -6 -11 4 -29 25 -54
8 -31 -21 13 -16 12 -17 -4 -4 -15 12 -20 11 -40 -5 -12 -10 -27 -24 -33 -31
-6 -7 -23 -14 -38 -15 -28 -2 -52 -30 -41 -47 3 -5 -3 -8 -12 -6 -10 1 -22 0
-28 -4 -5 -3 -14 -6 -20 -6 -5 0 -10 -4 -10 -8 0 -5 -13 -15 -28 -23 -15 -8
-25 -18 -23 -23 3 -4 -11 -14 -30 -21 -24 -10 -33 -18 -29 -29 5 -12 3 -13 -6
-4 -9 9 -17 5 -35 -14 -13 -14 -30 -23 -38 -20 -8 3 -16 -2 -19 -14 -3 -10
-12 -19 -20 -19 -30 0 -127 -58 -173 -103 -26 -26 -50 -45 -54 -42 -7 5 -40
-31 -40 -44 0 -5 -17 -21 -37 -37 -21 -16 -43 -33 -49 -39 -12 -12 -101 -141
-106 -154 -1 -5 -44 -36 -95 -70 -99 -65 -124 -94 -97 -109 14 -8 14 -12 -7
-31 -20 -18 -41 -26 -53 -18 -2 1 -24 -17 -49 -40 -26 -24 -55 -43 -66 -43
-11 0 -23 -4 -26 -10 -8 -13 -45 -13 -45 0 0 7 -6 7 -17 2 -10 -5 -35 -12 -56
-16 -29 -6 -37 -11 -33 -23 5 -11 2 -14 -10 -9 -17 7 -87 -47 -76 -59 4 -3 -6
-4 -22 -1 -16 3 -26 2 -22 -1 8 -9 -26 -32 -47 -33 -10 0 -29 -13 -42 -28 -13
-15 -36 -34 -52 -42 -37 -20 -54 -36 -45 -45 4 -4 -4 -4 -17 0 -21 6 -23 5
-19 -13 4 -14 2 -19 -7 -16 -29 12 -135 -55 -135 -85 0 -5 -11 -12 -25 -15
-14 -4 -25 -11 -25 -17 0 -5 -20 -30 -45 -56 -25 -25 -45 -51 -45 -59 0 -8 -3
-14 -7 -14 -5 0 -21 -19 -38 -41 -21 -28 -71 -65 -163 -122 -122 -74 -192
-128 -192 -149 0 -4 -15 -14 -32 -23 -57 -25 -118 -62 -136 -81 -17 -19 -65
-45 -115 -64 -15 -5 -31 -18 -34 -27 -9 -24 -89 -99 -138 -130 -21 -14 -53
-39 -70 -54 -16 -16 -38 -29 -47 -29 -10 0 -18 -4 -18 -10 0 -5 -7 -10 -16
-10 -8 0 -12 -4 -9 -10 3 -5 -16 -20 -42 -34 -26 -13 -73 -47 -103 -75 -30
-28 -62 -53 -70 -56 -8 -3 -26 -21 -40 -39 -13 -18 -45 -44 -70 -57 -132 -69
-358 -204 -379 -227 -21 -23 -22 -27 -7 -37 19 -14 21 -26 3 -20 -6 3 -21 -8
-32 -24 -10 -16 -22 -29 -25 -28 -3 1 -59 -34 -125 -78 -66 -43 -130 -84 -141
-91 -30 -16 -137 -94 -149 -108 -5 -7 -44 -37 -85 -68 -41 -31 -88 -68 -105
-82 -58 -50 -99 -76 -118 -76 -8 0 -23 -12 -33 -26 -10 -14 -30 -30 -42 -35
-13 -5 -26 -18 -29 -29 -3 -11 -11 -20 -18 -20 -14 0 -46 -30 -92 -86 -41 -50
-84 -114 -77 -114 10 0 -139 -107 -188 -136 -27 -15 -48 -30 -48 -34 0 -4 11
-13 25 -20 15 -8 23 -21 22 -34 -1 -15 3 -21 15 -20 13 1 15 -2 9 -14 -12 -21
-1 -54 15 -48 8 3 14 2 15 -2 4 -39 3 -60 -3 -56 -4 3 -12 -4 -17 -15 -9 -16
-7 -21 12 -27 12 -5 25 -7 30 -6 4 1 7 -7 7 -18 0 -17 5 -19 25 -14 15 4 25 2
25 -5 0 -15 30 -14 30 2 0 6 5 4 11 -6 14 -23 99 -15 140 14 16 11 33 18 38
15 5 -3 11 3 14 14 3 14 17 21 47 26 47 8 77 30 82 59 2 11 29 37 63 60 33 22
65 44 71 50 6 5 26 21 44 35 18 14 38 30 44 36 6 6 30 23 54 38 23 14 48 35
54 46 7 11 18 20 25 20 7 0 13 4 13 9 0 5 15 18 33 30 17 11 28 21 23 21 -4 0
2 9 15 21 13 11 -7 -1 -46 -26 -38 -26 -84 -59 -101 -74 -16 -16 -43 -37 -60
-47 -16 -10 -36 -26 -44 -35 -24 -26 -108 -76 -87 -52 9 11 14 23 10 28 -5 4
-3 5 3 2 6 -4 23 7 38 23 14 17 31 30 37 30 5 0 7 6 3 13 -4 6 -3 9 1 4 10 -8
45 21 45 37 0 6 16 21 36 34 20 13 32 27 28 34 -4 6 -3 8 3 5 5 -4 23 7 39 24
16 17 42 38 58 46 16 9 43 29 60 45 17 16 43 36 58 44 15 8 31 20 35 27 4 8
62 53 128 102 66 48 145 106 175 129 30 23 82 59 115 80 33 21 71 47 85 57 14
11 48 35 75 53 28 19 60 43 71 54 43 41 188 133 201 128 7 -3 13 -1 13 5 0 6
7 3 16 -5 21 -22 23 -20 18 10 -6 33 23 61 159 150 53 36 107 75 120 88 27 28
91 76 101 76 4 0 4 -5 0 -12 -4 -7 7 -2 24 11 18 12 32 27 32 33 0 6 3 9 6 5
6 -6 17 1 63 44 41 37 121 94 134 94 24 2 47 18 47 33 0 8 3 13 6 9 6 -5 266
177 391 275 35 26 65 48 68 48 3 0 24 14 47 31 31 22 49 28 67 24 21 -6 23 -4
11 10 -7 8 -11 17 -9 18 2 2 27 22 55 45 28 23 54 39 58 35 3 -3 6 -1 6 5 0 7
3 11 8 10 4 -2 9 2 11 7 2 6 22 21 45 35 45 26 352 244 446 314 30 23 76 54
101 69 25 14 83 53 128 87 44 33 84 60 88 60 8 0 203 131 203 137 0 2 -5 1
-12 -3 -7 -4 -8 -3 -4 4 4 6 13 9 21 6 8 -3 21 6 31 21 10 15 23 24 31 21 8
-3 12 -2 8 3 -6 11 39 45 73 55 12 4 22 12 22 17 0 5 4 9 9 9 6 0 25 14 43 30
18 17 37 30 43 30 5 0 44 27 85 61 41 33 119 87 173 120 53 34 97 64 97 68 0
4 35 32 78 61 42 30 143 102 224 160 80 58 172 123 204 145 31 22 62 45 68 50
6 6 42 34 79 63 81 62 77 63 180 -41 38 -40 74 -73 79 -73 4 -1 13 -2 19 -3 6
0 9 -7 6 -15 -4 -9 9 -20 36 -32 23 -10 48 -27 55 -36 7 -10 19 -18 25 -18 7
0 21 -14 32 -30 11 -16 25 -30 32 -30 7 0 26 -20 42 -43 16 -24 42 -52 58 -62
15 -10 32 -24 36 -32 5 -7 13 -11 18 -7 5 3 8 0 7 -8 -2 -7 4 -13 12 -13 8 0
19 -6 23 -13 5 -7 13 -10 18 -6 5 3 9 2 8 -3 -4 -15 13 -43 25 -43 21 0 141
-84 188 -133 27 -26 53 -45 58 -42 6 4 9 1 8 -7 -2 -7 3 -12 10 -11 6 2 12 -1
12 -7 0 -5 13 -16 30 -25 16 -8 39 -25 50 -37 11 -12 38 -31 59 -42 22 -12 57
-36 78 -54 47 -40 139 -102 152 -102 5 0 23 -14 40 -31 19 -18 45 -32 68 -36
39 -6 88 -35 185 -111 34 -26 62 -41 69 -36 8 4 10 3 5 -4 -4 -7 -2 -13 3 -13
6 -1 17 -2 24 -3 6 -1 11 -7 10 -13 -3 -14 129 -122 180 -147 21 -10 36 -21
33 -23 -3 -3 15 -26 39 -50 24 -25 41 -51 39 -57 -3 -7 7 -18 21 -24 14 -6 25
-18 25 -26 0 -8 15 -22 34 -31 21 -10 33 -22 30 -30 -6 -15 29 -38 41 -27 5 4
5 2 2 -4 -4 -7 5 -20 21 -29 15 -10 39 -30 53 -45 18 -18 31 -25 41 -19 10 5
14 2 15 -13 1 -11 9 -28 17 -37 9 -10 16 -23 16 -29 0 -7 8 -12 18 -12 10 0
27 -7 38 -15 12 -8 25 -11 29 -7 5 4 5 1 1 -6 -5 -8 0 -20 11 -30 10 -10 23
-26 29 -37 6 -11 20 -21 30 -23 11 -2 33 -14 49 -27 15 -14 34 -25 42 -25 7 0
13 -4 13 -9 0 -5 8 -12 18 -15 9 -3 33 -19 52 -36 19 -16 41 -30 49 -30 8 0
11 -3 8 -7 -7 -6 71 -48 85 -45 4 1 16 -10 28 -25 11 -15 33 -28 48 -30 49 -5
52 -6 52 -19 0 -7 14 -18 30 -26 17 -7 30 -16 30 -20 0 -5 7 -8 16 -8 9 0 28
-8 42 -18 15 -10 49 -29 75 -43 27 -13 95 -69 153 -127 57 -57 109 -100 114
-97 6 4 7 -1 3 -11 -4 -11 -3 -15 5 -10 6 3 13 -3 17 -15 4 -12 12 -18 20 -15
9 3 12 0 8 -10 -3 -7 -1 -14 3 -14 5 0 23 -13 39 -28 41 -38 128 -97 138 -94
5 1 6 -2 2 -7 -3 -6 20 -28 52 -50 32 -21 78 -58 103 -80 25 -22 51 -41 58
-41 7 0 11 -4 8 -9 -6 -9 22 -26 36 -23 5 1 7 -2 5 -6 -1 -5 12 -21 29 -35 24
-21 34 -24 44 -14 8 7 10 8 7 1 -8 -14 27 -47 38 -37 4 5 5 3 1 -4 -4 -7 16
-23 54 -44 33 -17 60 -36 60 -40 0 -5 6 -9 14 -9 7 0 19 -7 26 -15 7 -9 15
-14 17 -11 2 2 15 -6 28 -18 13 -12 63 -49 112 -81 48 -33 93 -66 99 -74 7 -8
16 -11 24 -6 8 5 11 4 7 -2 -3 -5 13 -20 36 -33 54 -29 78 -50 71 -61 -3 -5 1
-9 9 -9 8 0 40 -25 72 -55 32 -30 62 -55 67 -55 4 0 8 -9 8 -21 0 -11 4 -17
10 -14 5 3 20 -11 34 -32 41 -63 59 -82 95 -101 19 -10 37 -24 39 -30 2 -7
-50 24 -117 69 -83 55 -118 85 -114 95 4 10 0 12 -11 8 -27 -10 -18 -42 16
-60 17 -9 59 -38 93 -65 35 -27 68 -49 74 -49 6 0 11 -4 11 -10 0 -5 6 -10 13
-10 7 0 42 -20 78 -45 35 -25 67 -45 72 -45 4 0 26 -12 48 -26 23 -14 38 -20
33 -12 -4 7 2 5 14 -5 11 -11 26 -16 31 -12 6 3 21 -1 33 -9 29 -21 40 -20 68
4 24 21 46 26 52 12 2 -4 19 -20 39 -35 33 -25 40 -26 64 -15 23 10 29 10 39
-3 6 -9 26 -23 44 -33 30 -16 32 -16 32 2 0 10 -6 24 -12 31 -11 11 -9 11 10
2 27 -14 42 -7 42 21 0 18 -2 19 -17 7 -15 -13 -15 -12 -2 8 7 12 15 20 17 18
2 -2 17 1 33 5 17 5 31 5 35 -1 3 -5 9 -7 14 -4 9 6 6 37 -5 55 -3 6 1 10 10
10 10 0 15 6 12 13 -3 8 9 21 29 32 19 10 34 21 34 25 0 4 -25 24 -55 46 -30
21 -54 45 -55 52 0 20 -28 44 -41 36 -8 -4 -9 -3 -5 5 8 12 -15 41 -33 41 -6
0 -16 10 -23 23 -12 21 -14 27 -17 46 -2 16 -63 32 -76 21 -17 -14 -38 -4 -64
30 -12 17 -26 30 -32 30 -15 0 -120 74 -148 104 -14 14 -32 26 -41 26 -9 0
-29 14 -46 31 -16 17 -55 49 -86 70 -31 22 -61 45 -65 53 -12 21 -84 67 -94
60 -5 -3 -8 0 -7 6 2 6 -42 39 -97 72 -105 63 -168 112 -158 122 4 3 1 6 -5 6
-7 0 -12 7 -12 15 0 8 -6 12 -14 9 -9 -3 -29 10 -50 32 -28 30 -38 35 -49 26
-11 -10 -38 7 -136 83 -146 114 -156 124 -163 151 -5 20 -3 21 31 12 54 -14
61 -19 16 -12 -54 8 -40 -4 18 -15 31 -5 50 -5 58 3 9 8 10 8 5 -2 -6 -9 1
-11 26 -7 l33 5 -25 -15 -25 -16 25 7 c32 9 72 7 107 -7 35 -14 73 -21 73 -14
0 2 -18 14 -39 25 -22 11 -43 25 -47 32 -5 9 -1 8 12 -1 10 -8 8 -3 -6 11 -14
15 -32 28 -40 30 -19 4 -183 107 -193 122 -4 6 -5 19 -3 29 3 13 0 17 -10 13
-11 -4 -11 -2 -3 13 14 21 -9 78 -29 74 -7 -2 -12 5 -12 15 0 30 -13 34 -31
10 -13 -16 -21 -19 -31 -12 -7 6 -25 9 -40 8 -16 -2 -28 1 -28 7 0 5 -11 9
-25 9 -13 0 -44 11 -67 25 -24 14 -67 36 -95 50 -29 13 -77 39 -105 58 -85 54
-128 79 -128 72 0 -10 -42 15 -89 54 -25 20 -41 30 -37 24 13 -22 -4 -14 -31
15 -15 15 -23 21 -19 15 5 -9 2 -11 -8 -7 -9 3 -13 11 -9 18 3 6 3 8 -2 4 -5
-5 -14 1 -22 12 -8 11 -20 20 -27 20 -8 0 -19 7 -26 15 -6 8 -15 14 -18 12 -8
-2 -60 32 -82 53 -9 8 -32 24 -53 35 -20 11 -37 23 -37 28 0 4 -4 6 -9 3 -5
-3 -31 10 -57 28 -27 19 -73 51 -103 71 -59 40 -82 60 -76 67 2 2 -5 5 -16 5
-12 1 -26 8 -32 16 -7 8 -30 27 -52 43 -22 16 -42 31 -45 34 -3 3 -16 13 -30
22 -14 10 -50 35 -80 57 -30 23 -71 50 -90 60 -19 11 -49 33 -67 48 -57 51
-73 63 -73 55 0 -4 -4 -2 -8 4 -17 24 -82 65 -93 58 -7 -4 -9 -3 -5 4 4 6 -13
24 -39 42 -25 17 -53 39 -63 49 -9 10 -26 21 -37 25 -12 3 -42 31 -69 61 -26
30 -52 53 -57 49 -5 -3 -9 2 -9 11 0 13 -6 16 -26 11 -20 -5 -35 0 -67 27 -23
18 -59 43 -79 56 -21 12 -38 29 -38 37 0 17 5 17 32 3 16 -8 19 -8 13 1 -5 8
-3 11 6 8 8 -3 13 -10 12 -16 -2 -7 4 -9 14 -5 11 4 14 2 9 -5 -4 -7 10 -20
36 -33 24 -12 46 -27 50 -33 4 -6 10 -8 13 -4 9 9 -69 66 -84 60 -8 -3 -11 0
-7 6 8 13 -30 37 -58 37 -11 0 -21 6 -24 14 -3 9 0 11 9 6 8 -5 5 1 -6 12 -11
11 -24 18 -29 15 -5 -3 -6 8 -3 25 5 27 4 30 -13 26 -11 -3 -20 -9 -20 -14 0
-5 -7 -9 -15 -9 -8 0 -14 6 -13 13 2 6 -3 11 -10 9 -7 -1 -26 7 -41 17 -16 11
-30 18 -33 15 -3 -2 -11 2 -18 11 -7 8 -17 15 -22 15 -5 0 -17 9 -26 19 -10
10 -43 33 -75 50 -32 17 -102 67 -155 110 -173 141 -166 134 -165 174 1 33 -1
36 -18 26 -11 -5 -17 -15 -14 -22 4 -7 -1 -3 -9 7 -9 11 -16 17 -16 13 0 -13
-55 20 -91 54 -61 57 -116 99 -122 94 -4 -3 -5 -2 -2 2 9 12 -28 43 -51 43
-12 0 -36 11 -52 25 -17 14 -34 25 -40 25 -6 0 -12 3 -14 8 -8 19 -118 103
-127 97 -6 -3 -9 0 -6 8 4 8 -8 21 -28 33 -75 43 -167 108 -167 118 0 6 -12
17 -27 23 -16 7 -37 26 -48 43 -11 16 -26 30 -34 30 -7 0 -22 10 -32 22 -11
11 -19 18 -19 14 0 -3 -19 7 -42 24 -44 32 -68 38 -68 16 0 -8 -7 -16 -15 -20
-28 -10 -15 -36 55 -107 55 -55 68 -74 60 -84 -6 -8 -19 -11 -27 -8 -12 5 -15
2 -10 -10 11 -28 -16 -38 -48 -17 -18 12 -38 17 -52 14 -16 -4 -23 -2 -23 9 0
8 -7 18 -16 21 -8 3 -12 11 -8 17 5 9 -3 10 -30 5 -22 -4 -43 -3 -50 3 -6 5
-21 8 -31 6 -11 -2 -23 -4 -27 -4 -12 -1 -9 -21 2 -21 25 0 144 -103 133 -114
-3 -3 6 -11 21 -17 14 -7 26 -16 26 -20 0 -5 -11 -4 -24 2 -27 13 -7 25 -301
-179 -99 -69 -193 -138 -210 -152 -16 -15 -98 -73 -181 -128 -83 -55 -157
-106 -165 -114 -8 -8 -75 -51 -150 -96 -75 -46 -156 -100 -180 -122 -24 -22
-47 -40 -51 -40 -12 0 -10 18 2 25 6 4 8 10 6 14 -9 15 84 101 142 131 21 11
47 28 58 38 28 24 61 42 79 42 8 0 20 10 26 23 17 30 34 43 101 74 32 14 55
31 51 36 -3 6 -1 7 5 3 14 -8 47 6 164 73 93 53 125 81 92 81 -11 0 -13 6 -9
20 4 13 1 22 -9 26 -18 7 -98 -35 -90 -48 3 -5 2 -7 -3 -6 -16 5 -74 -22 -68
-32 3 -5 0 -7 -9 -4 -17 7 -84 -26 -110 -55 -12 -13 -31 -21 -50 -20 -30 0
-30 1 -8 11 13 7 21 17 18 25 -3 8 -2 12 3 9 5 -3 18 2 29 12 11 9 29 23 39
30 10 7 12 10 4 6 -10 -5 -12 -3 -7 5 5 7 11 10 14 7 5 -5 69 38 82 55 3 3 15
9 28 13 12 4 19 12 16 18 -4 6 -2 8 3 5 6 -4 23 5 39 18 16 14 32 25 35 25 3
0 23 14 44 30 27 22 41 27 50 20 9 -8 14 -6 19 5 3 9 35 30 71 46 39 18 63 34
59 40 -4 7 1 7 15 0 14 -8 21 -8 21 -1 0 5 9 10 20 10 12 0 17 5 14 14 -4 11
18 23 56 30 3 1 16 9 30 18 19 14 22 20 12 30 -7 7 -12 20 -12 31 0 10 -4 15
-10 12 -5 -3 -10 -1 -10 6 0 10 -3 10 -12 1 -7 -7 -20 -12 -30 -12 -10 0 -18
-4 -18 -9 0 -5 -23 -12 -50 -16 -28 -4 -48 -10 -45 -15 3 -4 -5 -8 -18 -8 -12
0 -32 -3 -44 -7 -19 -6 -22 -4 -18 15 2 13 6 24 7 25 2 1 20 9 41 19 35 16 53
34 22 22 -9 -3 -15 0 -15 9 0 8 -4 15 -10 15 -5 0 -10 6 -10 14 0 16 27 29 41
20 5 -3 9 2 9 10 0 17 34 38 65 40 12 1 19 7 18 17 -3 13 39 46 60 48 4 0 17
10 28 23 11 13 17 16 13 8 -6 -11 -2 -10 13 3 11 9 25 17 31 17 6 0 14 5 18
12 5 7 2 9 -7 4 -8 -4 -5 -1 5 8 10 8 23 13 29 9 6 -3 7 -1 3 5 -9 15 -5 15
-40 -3z m-352 -161 c3 -8 2 -12 -4 -9 -6 3 -10 10 -10 16 0 14 7 11 14 -7z
m66 -82 c0 -17 -38 -44 -45 -32 -4 6 1 18 11 25 22 16 34 19 34 7z m-29 -199
c13 -16 12 -17 -3 -4 -10 7 -18 15 -18 17 0 8 8 3 21 -13z m-280 -166 c-10 -9
-11 -8 -5 6 3 10 9 15 12 12 3 -3 0 -11 -7 -18z m-231 -303 c0 -8 -19 -13 -24
-6 -3 5 1 9 9 9 8 0 15 -2 15 -3z m-441 -397 c-41 -29 -101 -73 -134 -97 -105
-78 -165 -117 -130 -84 11 10 50 41 85 68 36 28 81 64 100 80 81 70 105 86
128 86 19 0 9 -11 -49 -53z m3232 -214 c13 -16 12 -17 -3 -4 -10 7 -18 15 -18
17 0 8 8 3 21 -13z m-3541 -8 c0 -1 -21 -17 -47 -35 -27 -19 -52 -39 -58 -45
-5 -7 -98 -72 -205 -145 -179 -122 -248 -172 -413 -297 -72 -55 -87 -57 -18
-2 28 22 48 46 44 51 -4 7 -1 8 7 3 7 -4 15 -3 19 2 3 5 27 24 54 42 26 17 47
37 47 43 0 6 3 9 6 5 3 -3 15 3 27 13 12 10 42 35 67 56 25 20 44 41 43 45 -2
5 3 6 10 3 7 -2 32 9 55 26 23 16 44 30 47 30 8 0 105 72 142 105 41 36 44 38
96 62 26 13 47 27 47 31 0 5 7 9 15 9 8 0 15 -1 15 -2z m-1140 -400 c-13 -13
-42 -34 -64 -46 -49 -26 -137 -63 -116 -49 33 22 195 119 199 120 3 0 -6 -11
-19 -25z m5001 -192 c13 -16 12 -17 -3 -4 -10 7 -18 15 -18 17 0 8 8 3 21 -13z
m1040 -259 c67 -45 66 -44 43 -44 -10 0 -39 18 -64 40 -56 50 -48 51 21 4z
m-706 -14 c3 -6 -1 -7 -9 -4 -18 7 -21 14 -7 14 6 0 13 -4 16 -10z m-5625
-214 c0 -2 -8 -10 -17 -17 -16 -13 -17 -12 -4 4 13 16 21 21 21 13z m-250
-181 c0 -2 -10 -9 -22 -15 -22 -11 -22 -10 -4 4 21 17 26 19 26 11z m7533
-167 c81 -54 95 -68 32 -32 -73 41 -119 74 -106 74 6 0 39 -19 74 -42z m44
-58 c40 -24 71 -45 70 -46 -3 -3 -210 48 -217 53 -2 2 2 8 10 13 8 5 16 15 16
22 1 7 2 17 3 22 0 4 11 2 24 -6 12 -9 55 -35 94 -58z m93 -21 c0 -4 -7 -6
-15 -3 -8 4 -15 10 -15 15 0 4 7 6 15 3 8 -4 15 -10 15 -15z m-8396 -117 c2
-4 -4 -8 -14 -8 -10 0 -16 4 -14 8 3 4 9 8 14 8 5 0 11 -4 14 -8z m-1462 -879
c2 -13 -12 -26 -52 -45 -30 -15 -60 -35 -66 -43 -12 -16 -48 -10 -38 6 7 12
136 99 146 99 3 0 8 -8 10 -17z m9 -170 c13 -16 12 -17 -3 -4 -17 13 -22 21
-14 21 2 0 10 -8 17 -17z m11106 -15 c-3 -8 -6 -5 -6 6 -1 11 2 17 5 13 3 -3
4 -12 1 -19z m-662 -58 c3 -6 -1 -7 -9 -4 -18 7 -21 14 -7 14 6 0 13 -4 16
-10z m170 -100 c-3 -5 -12 -10 -18 -10 -7 0 -6 4 3 10 19 12 23 12 15 0z"/>
<path d="M5615 10179 c-10 -15 3 -25 16 -12 7 7 7 13 1 17 -6 3 -14 1 -17 -5z"/>
<path d="M5860 10130 c0 -6 7 -10 15 -10 8 0 15 2 15 4 0 2 -7 6 -15 10 -8 3
-15 1 -15 -4z"/>
<path d="M6800 9801 c40 -33 140 -103 140 -98 0 6 -124 97 -149 110 -9 5 -5
-1 9 -12z"/>
<path d="M6950 9696 c0 -3 20 -19 45 -36 25 -17 45 -29 45 -26 0 3 -20 19 -45
36 -25 17 -45 29 -45 26z"/>
<path d="M7054 9622 c8 -14 91 -72 102 -72 4 0 -2 9 -14 20 -12 11 -24 20 -28
20 -3 0 -20 10 -37 22 -17 12 -27 17 -23 10z"/>
<path d="M7390 9356 c0 -2 14 -14 30 -26 17 -12 30 -19 30 -16 0 2 -13 14 -30
26 -16 12 -30 19 -30 16z"/>
<path d="M7476 9294 c10 -8 14 -13 7 -10 -6 4 -14 2 -17 -3 -3 -5 6 -11 19
-14 34 -6 41 8 13 27 -29 21 -48 21 -22 0z"/>
<path d="M7700 8996 c0 -3 9 -10 20 -16 11 -6 20 -8 20 -6 0 3 -9 10 -20 16
-11 6 -20 8 -20 6z"/>
<path d="M7774 8941 c7 -11 46 -35 46 -28 0 3 -12 12 -26 22 -15 9 -23 12 -20
6z"/>
<path d="M7842 8894 c10 -10 20 -16 22 -13 3 3 -5 11 -17 18 -21 13 -21 12 -5
-5z"/>
<path d="M8053 8775 c0 -8 4 -12 8 -10 4 3 9 -2 13 -10 3 -9 12 -12 22 -8 12
4 15 3 10 -6 -4 -6 -4 -11 1 -10 21 4 32 -2 27 -16 -6 -15 92 -85 121 -85 9 0
13 -4 10 -10 -3 -5 -1 -10 4 -10 19 0 12 19 -11 32 -13 7 -26 11 -30 10 -8 -2
-12 14 -9 31 1 5 -3 6 -9 2 -6 -3 -7 -11 -4 -17 5 -7 2 -8 -5 -4 -7 5 -10 15
-6 23 5 14 3 14 -11 2 -13 -11 -15 -10 -12 4 2 12 -16 30 -58 57 -39 25 -61
34 -61 25z m109 -69 c7 4 8 2 4 -5 -9 -13 -26 -5 -25 12 0 9 2 8 6 -1 2 -6 10
-9 15 -6z"/>
<path d="M8290 8610 c0 -5 4 -10 9 -10 5 0 17 -7 25 -16 9 -8 16 -11 16 -6 0
5 -11 17 -25 26 -14 9 -25 12 -25 6z"/>
<path d="M8350 8570 c0 -6 7 -10 15 -10 8 0 15 2 15 4 0 2 -7 6 -15 10 -8 3
-15 1 -15 -4z"/>
<path d="M8405 8540 c3 -6 12 -10 20 -10 7 0 15 -4 17 -8 4 -10 49 -42 115
-81 41 -24 50 -26 41 -11 -7 10 -46 38 -87 62 -85 49 -115 62 -106 48z"/>
<path d="M8750 8321 c19 -17 42 -30 50 -30 10 0 9 3 -5 11 -11 6 -33 20 -50
30 -26 18 -26 16 5 -11z"/>
<path d="M8648 8323 c7 -3 16 -2 19 1 4 3 -2 6 -13 5 -11 0 -14 -3 -6 -6z"/>
<path d="M8775 8265 c77 -19 147 -33 155 -32 8 2 -10 17 -40 35 -61 36 -70 38
-70 19 0 -10 -11 -12 -47 -7 -27 4 -68 10 -93 14 -25 3 18 -10 95 -29z"/>
<path d="M6266 7273 c-4 -4 -44 -8 -89 -9 -117 -3 -115 -3 -92 -17 19 -11 18
-12 -14 -17 l-34 -5 0 -364 c0 -362 0 -364 -19 -340 -17 22 -18 22 -9 2 15
-30 14 -76 -1 -67 -7 5 -8 3 -3 -6 6 -10 11 -9 21 5 10 14 13 -16 12 -173 -1
-105 -5 -189 -9 -186 -4 2 -10 0 -14 -6 -9 -14 -27 -1 -19 13 4 7 3 9 -1 4
-13 -12 -12 -53 2 -66 10 -9 13 -7 14 11 1 15 5 8 11 -17 5 -22 10 -104 11
-182 2 -113 0 -138 -9 -121 -11 20 -11 44 -1 108 2 14 0 28 -6 31 -5 4 -13 24
-17 45 l-8 39 -1 -45 c-1 -25 -3 -73 -5 -108 -2 -35 1 -57 5 -50 7 10 9 10 10
-2 1 -8 3 -27 5 -42 1 -16 0 -28 -4 -28 -4 0 -8 -12 -10 -27 -4 -45 -2 -262 2
-288 2 -13 1 -39 -4 -59 -4 -21 -4 -34 1 -30 10 6 13 -9 4 -18 -7 -6 -17 -200
-18 -318 l0 -85 94 4 c52 2 99 6 104 10 6 4 24 6 40 4 17 -1 104 -3 195 -4
113 0 167 -4 173 -12 5 -9 11 -8 20 3 8 10 34 16 82 17 39 1 103 3 143 5 39 2
72 1 72 -2 0 -4 20 -4 45 0 24 4 71 5 102 3 32 -2 128 -5 214 -6 85 -2 159 -6
165 -8 5 -3 35 -4 67 -3 31 0 57 -2 57 -7 0 -11 44 2 52 16 4 7 23 11 45 9 64
-6 270 -1 278 7 9 10 15 178 6 183 -5 4 -5 22 0 47 5 22 7 44 5 48 -7 11 16
81 24 76 11 -7 7 29 -4 37 -6 4 -5 13 3 21 8 10 10 28 5 53 -4 21 -8 50 -8 64
-1 14 -4 30 -7 35 -3 6 -4 21 -2 35 1 14 2 50 2 80 -2 163 -1 678 1 830 3 191
2 200 -23 228 -16 18 -17 21 -2 36 16 16 17 35 29 428 1 36 -2 64 -7 61 -5 -3
-5 16 -2 41 5 33 3 51 -6 63 -12 15 -12 16 6 9 14 -5 17 -4 10 3 -7 7 -22 8
-41 2 -28 -8 -86 -7 -141 4 -13 2 -21 0 -17 -6 3 -6 -43 -9 -123 -8 -180 1
-243 -2 -243 -12 0 -5 -12 -4 -27 3 -16 6 -113 12 -223 14 -107 2 -200 6 -207
8 -6 3 -13 0 -15 -6 -3 -8 -13 -8 -36 0 -17 6 -34 7 -36 3 -6 -10 -546 -8
-562 2 -6 3 -14 3 -18 0z m-232 -1822 c1 -66 -2 -117 -7 -112 -11 11 -15 63
-6 82 5 9 3 38 -4 65 -7 27 -12 55 -11 62 1 6 2 20 3 29 1 13 4 14 13 5 7 -7
12 -54 12 -131z m113 -554 c-2 -7 -11 -10 -18 -9 -8 2 -25 6 -39 9 -39 7 -34
10 15 11 33 1 45 -2 42 -11z m288 3 c-11 -5 -33 -9 -50 -9 -23 -1 -26 2 -15 9
8 5 31 9 50 9 29 0 31 -2 15 -9z m1222 4 c-3 -3 -12 -4 -19 -1 -8 3 -5 6 6 6
11 1 17 -2 13 -5z"/>
<path d="M10038 7273 c7 -3 16 -2 19 1 4 3 -2 6 -13 5 -11 0 -14 -3 -6 -6z"/>
<path d="M10085 7260 c11 -5 27 -9 35 -9 9 0 8 4 -5 9 -11 5 -27 9 -35 9 -9 0
-8 -4 5 -9z"/>
<path d="M10148 7243 c7 -3 16 -2 19 1 4 3 -2 6 -13 5 -11 0 -14 -3 -6 -6z"/>
<path d="M4837 7196 c-4 -13 -96 -18 -392 -19 -232 0 -513 10 -552 19 -14 4
-34 -1 -49 -11 -14 -9 -28 -14 -31 -11 -3 3 -14 1 -24 -4 -12 -7 -20 -7 -24 0
-8 13 -251 9 -252 -5 -8 -82 -10 -186 -3 -190 5 -3 4 -21 -1 -40 -6 -20 -8
-44 -5 -53 3 -10 -3 -33 -13 -53 -12 -22 -16 -41 -11 -49 5 -7 4 -24 -1 -37
-4 -12 -6 -28 -4 -35 6 -16 16 -103 16 -138 0 -14 0 -54 1 -90 2 -280 0 -703
-5 -837 -3 -97 -2 -165 4 -168 5 -4 9 -13 9 -22 0 -9 7 -21 16 -28 14 -10 14
-14 3 -26 -8 -8 -15 -20 -17 -27 -8 -40 -14 -379 -9 -517 1 -33 -2 -64 -8 -68
-5 -5 6 -5 25 -1 41 8 38 8 118 0 35 -3 61 -2 58 3 -3 5 56 8 132 8 75 0 164
0 197 1 33 1 121 0 195 -3 271 -11 311 -11 316 -4 2 4 17 4 32 0 15 -4 38 -5
52 -2 33 8 494 6 543 -2 20 -4 37 -3 37 2 0 5 36 7 80 5 74 -3 80 -1 75 15 -4
14 0 17 27 17 l32 -1 -1 193 c-1 171 5 219 20 180 3 -7 6 -2 6 11 1 16 -3 21
-13 18 -11 -4 -13 25 -13 163 0 93 4 167 9 164 4 -3 8 7 8 22 0 22 3 24 14 15
11 -10 14 -9 12 3 -4 26 -16 30 -30 11 -12 -17 -14 6 -13 168 1 147 4 187 14
187 7 0 13 5 13 11 0 5 5 7 11 4 6 -4 8 -14 4 -23 -3 -9 -2 -13 2 -8 9 9 11
66 2 61 -3 -2 -14 10 -25 28 -16 27 -19 53 -20 165 -1 125 7 166 19 104 6 -30
5 -39 -8 -86 -6 -22 -4 -32 8 -41 8 -6 17 -27 20 -46 3 -28 4 -25 6 16 1 28 3
68 5 90 1 22 -2 49 -8 60 -18 37 -14 103 5 74 7 -11 9 -11 9 -1 0 7 -6 15 -14
18 -8 3 -12 12 -9 20 3 8 8 12 13 9 4 -2 5 48 3 113 -8 224 -8 264 -1 268 3 2
3 17 -2 33 -4 16 -6 32 -4 34 10 10 20 219 15 319 -1 27 -2 27 -58 22 -32 -2
-76 -7 -98 -11 -22 -4 -65 -6 -95 -5 -76 2 -197 1 -245 -1 -22 -1 -59 3 -82 9
-31 9 -43 9 -46 0z m233 -36 c0 -5 -17 -10 -37 -10 -28 0 -34 3 -23 10 20 13
60 13 60 0z m309 -6 c2 -2 -17 -4 -43 -4 -30 0 -45 4 -41 10 6 9 72 4 84 -6z
m-1569 2 c0 -3 -4 -8 -10 -11 -5 -3 -10 -1 -10 4 0 6 5 11 10 11 6 0 10 -2 10
-4z m1604 -421 c3 -8 1 -15 -4 -15 -6 0 -10 7 -10 15 0 8 2 15 4 15 2 0 6 -7
10 -15z m7 -37 c1 -7 1 -26 0 -43 -3 -55 -1 -84 7 -107 12 -33 9 -71 -5 -75
-9 -3 -13 11 -14 49 -4 142 -3 188 4 188 4 0 7 -6 8 -12z m6 -700 c-3 -8 -6
-5 -6 6 -1 11 2 17 5 13 3 -3 4 -12 1 -19z"/>
<path d="M6004 6936 c1 -8 5 -18 8 -22 4 -3 5 1 4 10 -1 8 -5 18 -8 22 -4 3
-5 -1 -4 -10z"/>
<path d="M6010 6853 c0 -12 5 -25 10 -28 13 -8 13 15 0 35 -8 12 -10 11 -10
-7z"/>
<path d="M5988 6705 c2 -14 6 -25 8 -25 2 0 4 11 4 25 0 14 -4 25 -9 25 -4 0
-6 -11 -3 -25z"/>
<path d="M5977 6662 c-3 -4 3 -15 13 -24 11 -12 17 -14 17 -5 0 16 -24 40 -30
29z"/>
<path d="M5980 6505 c0 -5 5 -17 10 -25 5 -8 10 -10 10 -5 0 6 -5 17 -10 25
-5 8 -10 11 -10 5z"/>
<path d="M5967 6303 c-2 -5 -1 -19 4 -33 7 -23 7 -23 8 8 1 31 -3 40 -12 25z"/>
<path d="M6016 6295 c4 -8 8 -15 10 -15 2 0 4 7 4 15 0 8 -4 15 -10 15 -5 0
-7 -7 -4 -15z"/>
<path d="M5992 6260 c0 -14 2 -19 5 -12 2 6 2 18 0 25 -3 6 -5 1 -5 -13z"/>
<path d="M5992 6195 c-2 -28 0 -33 13 -29 11 4 14 13 9 28 -11 37 -20 37 -22
1z"/>
<path d="M5422 6135 c0 -16 2 -22 5 -12 2 9 2 23 0 30 -3 6 -5 -1 -5 -18z"/>
<path d="M6012 5920 c0 -14 2 -19 5 -12 2 6 2 18 0 25 -3 6 -5 1 -5 -13z"/>
<path d="M5433 5896 c-13 -15 -7 -56 8 -56 5 0 9 16 9 35 0 39 0 40 -17 21z"/>
<path d="M5441 5804 c0 -11 3 -14 6 -6 3 7 2 16 -1 19 -3 4 -6 -2 -5 -13z"/>
<path d="M5460 5773 c0 -21 3 -24 9 -14 5 8 7 20 4 28 -8 21 -13 15 -13 -14z"/>
<path d="M5414 5750 c0 -13 4 -16 10 -10 7 7 7 13 0 20 -6 6 -10 3 -10 -10z"/>
<path d="M5445 5560 c3 -5 8 -10 11 -10 2 0 4 5 4 10 0 6 -5 10 -11 10 -5 0
-7 -4 -4 -10z"/>
<path d="M5434 5420 c0 -13 4 -16 10 -10 7 7 7 13 0 20 -6 6 -10 3 -10 -10z"/>
<path d="M5456 5405 c-3 -8 -1 -15 4 -15 6 0 10 7 10 15 0 8 -2 15 -4 15 -2 0
-6 -7 -10 -15z"/>
<path d="M5440 5350 c0 -11 4 -20 9 -20 5 0 7 9 4 20 -3 11 -7 20 -9 20 -2 0
-4 -9 -4 -20z"/>
<path d="M5427 5135 c-4 -8 -3 -16 1 -19 4 -3 9 4 9 15 2 23 -3 25 -10 4z"/>
<path d="M7916 4303 c-6 -7 -134 -16 -201 -15 -96 2 -195 1 -272 -1 -39 -1
-69 1 -66 6 2 4 -5 7 -17 7 -12 0 -19 -4 -16 -9 7 -11 -85 -14 -459 -13 -165
1 -347 5 -404 11 -77 7 -110 7 -125 -2 -13 -7 -78 -12 -169 -13 -82 -1 -153
-6 -158 -11 -11 -11 -19 -183 -9 -183 4 0 4 -19 0 -42 -5 -23 -6 -47 -3 -54 2
-7 -4 -33 -15 -57 -15 -34 -17 -48 -8 -57 8 -9 8 -14 0 -17 -8 -2 -10 -20 -6
-51 3 -26 6 -59 6 -74 1 -16 5 -28 9 -28 4 0 5 -19 1 -42 -4 -24 -5 -61 -3
-83 5 -67 2 -752 -4 -877 -4 -70 -2 -120 3 -123 6 -4 10 -17 10 -31 0 -13 5
-23 11 -22 6 2 13 -5 14 -15 2 -9 -1 -15 -6 -11 -5 3 -9 2 -10 -3 0 -4 -2 -19
-4 -33 -4 -25 -18 -406 -17 -425 7 -74 8 -143 1 -139 -5 3 -9 2 -9 -3 0 -4 49
-8 109 -8 60 0 108 2 106 5 -2 3 65 6 148 6 84 0 170 2 192 3 22 2 51 1 65 -3
13 -3 115 -6 225 -6 110 0 209 -1 220 -1 11 0 29 0 40 0 11 0 139 0 285 0 146
-1 279 -1 295 -1 17 0 68 1 114 1 74 0 83 2 72 15 -10 12 -7 15 21 18 l33 3 0
197 c0 159 2 194 13 186 10 -8 11 -7 6 8 -4 10 -10 24 -13 29 -10 16 -7 305 2
305 5 0 3 8 -4 17 -8 9 -9 14 -4 11 6 -4 16 2 23 13 13 20 3 26 -14 9 -6 -6
-9 19 -9 70 0 74 6 98 18 68 3 -7 4 -3 4 8 -1 12 -6 20 -12 18 -7 -3 -11 28
-10 95 0 93 1 101 22 110 19 9 21 8 16 -7 -4 -10 -2 -14 3 -9 11 10 13 58 3
51 -4 -2 -10 4 -12 13 -3 13 -5 11 -7 -7 -2 -18 -5 -12 -12 20 -11 56 -16 230
-6 230 4 0 2 14 -4 31 -8 22 -7 34 1 42 8 8 11 7 12 -3 0 -8 2 -26 5 -39 2
-13 0 -39 -5 -57 -6 -21 -6 -36 0 -40 5 -3 7 -10 4 -15 -4 -5 -1 -9 4 -9 6 0
12 -17 13 -37 1 -34 2 -33 7 12 3 28 3 51 -1 53 -3 2 -2 17 3 35 10 37 8 78
-3 71 -4 -3 -9 5 -9 18 -2 36 2 52 14 60 8 5 6 8 -5 8 -11 0 -15 5 -12 15 4 8
10 13 14 10 6 -4 5 116 -3 313 -1 28 2 52 7 52 8 0 6 26 -8 87 -3 13 -1 25 3
27 9 6 14 77 15 215 l1 95 -27 1 c-15 1 -30 0 -32 -2z m-336 -43 c0 -10 -3
-11 -42 -14 -34 -3 -46 7 -18 15 38 11 60 10 60 -1z m305 -11 c13 -5 6 -6 -20
-4 -22 2 -46 4 -53 4 -7 1 -10 6 -7 11 6 10 38 5 80 -11z m-1555 6 c0 -7 -30
-13 -34 -7 -3 4 4 9 15 9 10 1 19 0 19 -2z m1601 -450 c3 -59 1 -75 -8 -75 -5
0 -8 23 -8 50 0 50 14 72 16 25z m3 -122 c13 -75 8 -128 -10 -111 -8 9 -12
148 -4 148 5 0 11 -17 14 -37z"/>
<path d="M3575 4280 c-27 -4 -60 -6 -73 -5 -17 2 -20 -1 -13 -8 18 -18 13 -24
-19 -22 -26 2 -30 -2 -31 -24 0 -14 -1 -180 -1 -368 0 -189 -5 -343 -9 -343
-5 0 -9 -9 -9 -21 0 -11 4 -18 9 -15 5 3 8 -76 8 -179 0 -141 -3 -185 -13
-185 -7 0 -15 -6 -17 -12 -3 -7 -6 -2 -6 12 -1 16 -4 21 -9 13 -12 -19 -8 -66
6 -71 6 -2 12 3 12 12 0 9 4 16 10 16 6 0 6 -9 0 -24 -6 -17 -5 -26 3 -29 8
-2 12 -48 12 -151 1 -100 -2 -141 -8 -130 -14 24 -18 92 -6 99 5 4 9 15 9 26
0 11 -5 17 -10 14 -7 -4 -9 9 -6 37 4 35 4 38 -3 13 l-9 -30 -2 35 c-3 31 -4
29 -9 -15 -3 -27 -3 -51 1 -53 4 -2 5 -9 2 -15 -8 -23 -10 -96 -2 -91 4 3 8 2
9 -3 0 -4 2 -26 5 -47 4 -37 3 -38 -12 -20 -15 17 -15 17 0 -8 11 -19 12 -28
4 -30 -11 -4 -12 -46 -5 -321 1 -31 -2 -57 -6 -57 -5 0 -6 -4 -3 -8 8 -13 8
-78 1 -167 -4 -44 -7 -108 -7 -142 0 -112 -5 -103 60 -97 31 2 75 7 97 11 22
3 65 5 95 5 74 -1 185 -1 240 0 25 1 66 -2 93 -6 27 -4 47 -3 47 2 0 11 76 14
370 14 299 1 560 -6 560 -14 0 -12 29 -10 53 4 14 7 79 12 174 13 84 1 156 4
159 8 4 4 8 76 9 160 2 130 5 159 21 186 15 26 16 33 5 40 -10 6 -10 13 -2 29
6 12 8 38 4 64 -4 23 -6 53 -6 66 1 12 -3 22 -7 22 -4 0 -5 17 -3 38 3 20 5
53 5 72 -4 181 -3 709 1 837 5 120 3 173 -7 200 -7 21 -16 37 -20 36 -3 -2 -6
-1 -6 2 0 3 0 10 0 16 0 5 4 8 9 4 6 -3 10 3 10 12 0 10 2 83 6 163 11 256 11
311 3 316 -4 3 -8 12 -8 20 0 8 4 13 9 10 9 -6 6 42 -4 72 -3 7 0 10 5 7 6 -3
10 -1 10 5 0 7 -10 9 -27 6 -36 -7 -87 -7 -140 0 -24 3 -43 2 -43 -3 0 -5 -79
-9 -175 -9 -120 -1 -179 -5 -189 -13 -10 -9 -15 -9 -18 0 -6 17 -33 19 -223
20 -60 0 -134 2 -163 3 -29 2 -55 0 -57 -5 -3 -4 -19 -3 -37 1 -17 5 -35 7
-41 3 -15 -9 -453 -10 -521 -1 -38 5 -63 5 -70 -2 -13 -13 -39 -13 -31 0 3 6
5 9 3 9 -2 -1 -25 -5 -53 -9z m-139 -1819 c0 -73 -3 -126 -7 -118 -9 15 -10
41 -6 122 1 28 -3 55 -9 62 -14 14 -5 75 10 70 7 -2 11 -49 12 -136z m54 -543
c0 -4 -4 -8 -9 -8 -6 0 -12 4 -15 8 -3 5 1 9 9 9 8 0 15 -4 15 -9z m357 -4
c-2 -3 -26 -6 -53 -8 -47 -4 -48 -4 -20 8 24 11 84 11 73 0z m1213 6 c0 -5 -8
-10 -17 -10 -15 0 -16 2 -3 10 19 12 20 12 20 0z m-1510 -10 c0 -5 -9 -10 -19
-10 -11 0 -23 5 -26 10 -4 6 5 10 19 10 14 0 26 -4 26 -10z"/>
<path d="M3405 3950 c-3 -5 -1 -10 4 -10 6 0 11 5 11 10 0 6 -2 10 -4 10 -3 0
-8 -4 -11 -10z"/>
<path d="M3410 3877 c0 -20 4 -38 9 -42 6 -3 7 10 4 32 -8 50 -13 55 -13 10z"/>
<path d="M3386 3740 c7 -28 12 -35 18 -29 2 2 -2 15 -10 29 l-15 25 7 -25z"/>
<path d="M3378 3678 c-7 -17 17 -46 29 -34 3 3 1 6 -5 6 -6 0 -12 10 -14 23
-3 18 -4 19 -10 5z"/>
<path d="M3411 3534 c0 -11 3 -14 6 -6 3 7 2 16 -1 19 -3 4 -6 -2 -5 -13z"/>
<path d="M3381 3514 c0 -11 3 -14 6 -6 3 7 2 16 -1 19 -3 4 -6 -2 -5 -13z"/>
<path d="M3397 3469 c4 -13 8 -18 11 -10 2 7 -1 18 -6 23 -8 8 -9 4 -5 -13z"/>
<path d="M3390 3425 c-7 -9 -8 -15 -2 -15 5 0 12 7 16 15 3 8 4 15 2 15 -2 0
-9 -7 -16 -15z"/>
<path d="M3416 3315 c4 -8 8 -15 10 -15 2 0 4 7 4 15 0 8 -4 15 -10 15 -5 0
-7 -7 -4 -15z"/>
<path d="M3372 3295 c0 -16 2 -22 5 -12 2 9 2 23 0 30 -3 6 -5 -1 -5 -18z"/>
<path d="M3392 3280 c0 -14 2 -19 5 -12 2 6 2 18 0 25 -3 6 -5 1 -5 -13z"/>
<path d="M3387 3243 c-7 -14 8 -58 21 -60 17 -4 15 22 -3 40 -8 8 -11 17 -8
21 4 3 4 6 0 6 -3 0 -8 -3 -10 -7z"/>
<path d="M7931 3234 c0 -11 3 -14 6 -6 3 7 2 16 -1 19 -3 4 -6 -2 -5 -13z"/>
<path d="M7936 2982 c-3 -5 1 -18 9 -28 13 -17 14 -18 15 -1 0 9 0 20 1 24 1
11 -18 15 -25 5z"/>
<path d="M7952 2870 c0 -14 2 -19 5 -12 2 6 2 18 0 25 -3 6 -5 1 -5 -13z"/>
<path d="M7951 2685 c1 -19 18 -51 18 -35 0 8 -4 22 -9 30 -5 8 -9 11 -9 5z"/>
<path d="M7935 2630 c3 -5 8 -10 11 -10 2 0 4 5 4 10 0 6 -5 10 -11 10 -5 0
-7 -4 -4 -10z"/>
<path d="M7961 2511 c-8 -5 -10 -14 -6 -21 6 -9 10 -8 17 4 12 21 7 28 -11 17z"/>
<path d="M7950 2445 c0 -8 4 -15 10 -15 5 0 7 7 4 15 -4 8 -8 15 -10 15 -2 0
-4 -7 -4 -15z"/>
<path d="M7930 2280 c0 -5 5 -10 11 -10 5 0 7 5 4 10 -3 6 -8 10 -11 10 -2 0
-4 -4 -4 -10z"/>
<path d="M7937 2235 c-4 -8 -3 -16 1 -19 4 -3 9 4 9 15 2 23 -3 25 -10 4z"/>
<path d="M9992 2220 c-12 -19 -22 -48 -23 -65 0 -16 -2 -39 -4 -50 -5 -23 -15
-280 -21 -515 -5 -232 -6 -254 -13 -265 -3 -5 -4 -83 -2 -172 l3 -162 -24 -6
c-13 -3 -85 -4 -160 -1 -75 3 -165 1 -200 -4 -40 -6 -64 -6 -66 0 -5 13 -142
13 -142 0 0 -13 -76 -13 -100 0 -28 15 -313 24 -305 9 6 -8 2 -8 -13 0 -11 6
-31 11 -44 10 -13 0 -50 2 -83 5 -44 4 -56 2 -45 -5 11 -8 4 -8 -25 -3 -35 7
-181 10 -255 5 -36 -2 -73 -3 -85 -2 -5 1 -50 4 -100 6 -49 3 -94 6 -100 6 -5
1 -43 -1 -83 -4 -40 -3 -70 -2 -67 3 2 4 -12 8 -33 8 -117 2 -159 1 -179 -2
-13 -3 -23 0 -23 5 0 6 -7 6 -17 1 -20 -9 -192 -7 -223 3 -11 4 -20 2 -20 -3
0 -5 -41 -9 -91 -9 -84 0 -89 1 -63 13 21 10 22 12 6 8 -28 -7 -196 -16 -347
-19 -60 -1 -121 -5 -134 -9 -14 -5 -21 -4 -18 2 4 5 -18 12 -51 15 -31 4 -75
8 -97 11 -31 4 -35 3 -17 -4 33 -14 27 -19 -20 -14 -24 3 -70 5 -103 5 -33 1
-68 5 -77 10 -10 5 -18 5 -20 -1 -3 -8 -202 -22 -298 -20 -172 4 -279 0 -286
-11 -8 -14 -27 -11 -21 4 7 19 -138 21 -234 2 -95 -18 -119 -19 -119 -5 0 6
10 9 23 7 12 -2 38 -1 57 3 19 3 -102 5 -270 4 -168 0 -316 -4 -330 -8 -23 -7
-24 -7 -7 6 17 13 16 14 -11 13 -25 0 -29 -3 -21 -16 6 -12 4 -19 -8 -23 -22
-9 -39 9 -25 26 8 10 4 14 -19 14 -16 1 -26 -2 -23 -7 6 -11 -1 -11 -48 0 -21
5 -38 5 -38 1 0 -8 -79 -7 -95 1 -22 12 -73 9 -137 -7 -61 -16 -67 -16 -82 -1
-15 14 -21 14 -73 -10 -52 -24 -138 -39 -128 -23 2 4 34 15 70 25 36 9 63 20
60 23 -17 18 -135 20 -135 3 0 -5 10 -7 23 -5 20 4 21 4 2 -5 -30 -14 -108
-14 -99 0 5 8 -1 10 -20 7 -14 -3 -29 -1 -32 4 -3 4 -10 6 -15 3 -13 -9 -80
-9 -119 0 -32 7 -33 7 -16 -10 9 -10 15 -22 13 -29 -4 -13 -57 -21 -57 -8 0 5
-13 7 -30 4 -18 -3 -30 0 -30 7 0 6 5 11 10 11 6 0 10 4 10 9 0 12 -160 3
-176 -10 -6 -4 -24 -9 -40 -9 -58 -3 -249 12 -264 19 -8 5 -37 5 -65 0 l-50
-7 52 1 c28 1 49 -1 47 -4 -7 -12 -79 -23 -169 -26 -49 -1 -108 -4 -130 -6
-55 -6 -74 2 -49 20 15 11 3 13 -90 13 -79 0 -105 -3 -100 -12 5 -8 0 -9 -14
-6 -12 4 -25 2 -28 -3 -3 -5 -13 -9 -22 -9 -15 0 -15 2 -2 10 11 7 2 8 -28 5
-30 -4 -42 -2 -42 7 0 9 -3 8 -10 -2 -5 -8 -10 -11 -10 -6 0 4 -11 1 -25 -8
-14 -9 -25 -12 -25 -6 0 5 -12 10 -27 9 l-28 -1 25 -8 25 -7 -30 -5 c-16 -3
-9 -4 16 -3 26 2 52 -2 59 -8 10 -9 14 -9 17 0 2 7 10 10 16 8 22 -8 107 -11
109 -4 3 7 31 12 61 10 10 0 15 -6 12 -11 -3 -6 -1 -10 4 -10 6 0 11 5 11 10
0 6 9 10 21 10 11 0 18 -3 16 -8 -3 -4 142 -8 321 -9 180 -2 395 -4 477 -4 83
-1 269 0 415 2 146 3 285 1 310 -3 25 -5 52 -5 60 -1 8 4 49 8 90 9 41 1 121
4 177 7 60 2 100 0 97 -5 -3 -5 5 -6 18 -3 58 14 681 -1 783 -19 11 -2 31 1
45 7 28 11 389 20 538 13 29 -1 55 1 58 6 3 4 15 6 27 3 12 -3 49 -7 83 -9 33
-2 69 -8 80 -14 10 -5 38 -10 62 -11 23 -1 48 -2 55 -2 6 0 46 2 87 6 41 3 89
6 105 6 17 0 66 0 110 0 89 0 271 0 500 -1 83 -1 182 -1 220 -1 39 1 86 -1
105 -3 19 -2 116 -5 215 -6 191 -1 286 6 250 21 -18 7 -18 8 -2 8 10 1 27 -3
37 -9 10 -5 76 -12 147 -15 360 -13 454 -15 449 -7 -2 4 6 8 19 8 13 0 22 -3
20 -6 -2 -3 152 -4 343 -2 191 2 356 3 367 3 11 -1 86 -3 168 -6 l147 -5 1 98
c1 53 3 237 4 407 3 264 7 408 19 607 2 20 0 35 -3 33 -4 -2 -5 29 -3 69 2 39
2 83 0 96 -4 24 -4 24 -26 -10z m-4122 -1240 c18 -12 2 -12 -25 0 -13 6 -15 9
-5 9 8 0 22 -4 30 -9z m3140 -1 c0 -11 -30 -12 -48 0 -9 5 -3 8 17 9 17 0 31
-4 31 -9z"/>
<path d="M10031 2224 c0 -11 3 -14 6 -6 3 7 2 16 -1 19 -3 4 -6 -2 -5 -13z"/>
<path d="M4275 1030 c-19 -8 -19 -9 3 -9 12 -1 22 4 22 9 0 6 -1 10 -2 9 -2 0
-12 -4 -23 -9z"/>
<path d="M4540 1030 c-12 -8 -9 -10 12 -7 15 1 30 6 34 10 11 11 -29 8 -46 -3z"/>
<path d="M7478 1033 c7 -3 16 -2 19 1 4 3 -2 6 -13 5 -11 0 -14 -3 -6 -6z"/>
<path d="M3318 1023 c6 -2 18 -2 25 0 6 3 1 5 -13 5 -14 0 -19 -2 -12 -5z"/>
<path d="M3191 1011 c-8 -5 -26 -7 -40 -4 -20 3 -23 1 -14 -8 7 -7 21 -9 40
-4 15 5 31 8 36 7 4 -1 7 3 7 8 0 12 -10 13 -29 1z"/>
<path d="M1552 1001 c-11 -7 -10 -9 3 -14 9 -4 14 -3 10 2 -3 5 1 12 7 14 7 3
9 6 3 6 -5 0 -16 -3 -23 -8z"/>
<path d="M1985 1001 c21 -10 72 -15 64 -6 -3 2 -23 7 -45 10 -28 3 -34 2 -19
-4z"/>
<path d="M2470 993 c0 -7 6 -14 13 -14 6 -1 -1 -5 -18 -9 -24 -7 -20 -8 22 -7
52 2 66 9 41 21 -7 4 -4 5 7 3 11 -2 34 2 50 9 28 12 25 13 -42 12 -54 -1 -73
-5 -73 -15z"/>
<path d="M1435 990 c-3 -5 -1 -10 4 -10 6 0 11 5 11 10 0 6 -2 10 -4 10 -3 0
-8 -4 -11 -10z"/>
<path d="M1496 992 c-2 -4 4 -8 15 -8 10 0 19 4 19 8 0 10 -27 10 -34 0z"/>
<path d="M1935 990 c-3 -5 1 -10 10 -10 9 0 13 5 10 10 -3 6 -8 10 -10 10 -2
0 -7 -4 -10 -10z"/>
<path d="M2193 993 c9 -2 23 -2 30 0 6 3 -1 5 -18 5 -16 0 -22 -2 -12 -5z"/>
<path d="M3333 993 c9 -2 23 -2 30 0 6 3 -1 5 -18 5 -16 0 -22 -2 -12 -5z"/>
<path d="M2326 974 c-19 -19 -21 -28 -4 -17 7 4 26 6 43 5 16 -1 24 1 17 4 -6
3 -10 10 -6 15 9 16 -34 10 -50 -7z"/>
<path d="M9293 983 c9 -2 23 -2 30 0 6 3 -1 5 -18 5 -16 0 -22 -2 -12 -5z"/>
<path d="M1697 973 c-3 -5 6 -8 19 -8 13 0 24 3 24 8 0 4 -9 7 -19 7 -11 0
-22 -3 -24 -7z"/>
<path d="M1783 973 c-20 -7 -15 -22 5 -20 10 0 19 7 19 14 0 14 -4 15 -24 6z"/>
<path d="M1975 970 c-16 -7 -17 -9 -3 -9 9 -1 20 4 23 9 7 11 7 11 -20 0z"/>
<path d="M2250 965 c-7 -8 -16 -12 -21 -9 -5 3 -9 0 -9 -5 0 -17 45 -6 48 12
4 21 -2 22 -18 2z"/>
</g>
</svg>
